<svg width="1200" height="800" viewBox="0 0 1200 800" xmlns="http://www.w3.org/2000/svg" role="img" aria-label="Romantic placeholder">
  <defs>
    <linearGradient id="g1" x1="0" y1="0" x2="1" y2="1">
      <stop offset="0%" stop-color="#fff1f5"/>
      <stop offset="50%" stop-color="#ffe4ea"/>
      <stop offset="100%" stop-color="#f6f2ff"/>
    </linearGradient>
    <radialGradient id="glowBlue" cx="20%" cy="10%" r="40%">
      <stop offset="0%" stop-color="#3b82f6" stop-opacity="0.35"/>
      <stop offset="100%" stop-color="#3b82f6" stop-opacity="0"/>
    </radialGradient>
    <radialGradient id="glowBurgundy" cx="80%" cy="90%" r="40%">
      <stop offset="0%" stop-color="#6b0f1a" stop-opacity="0.35"/>
      <stop offset="100%" stop-color="#6b0f1a" stop-opacity="0"/>
    </radialGradient>
  </defs>
  <rect width="1200" height="800" fill="url(#g1)"/>
  <rect width="1200" height="800" fill="url(#glowBlue)"/>
  <rect width="1200" height="800" fill="url(#glowBurgundy)"/>

  <g opacity="0.25" fill="#ff8fa3">
    <path d="M600 560c-48-32-192-128-263-210C265 266 286 174 359 142c51-22 98-4 126 24l115 116 115-116c28-28 75-46 126-24 73 32 94 124 22 208-71 82-215 178-263 210z"/>
  </g>

  <text x="60" y="120" font-family="'Playfair Display', serif" font-size="56" fill="#b91c1c" opacity="0.65">Seninle Her Gün Bir Hikaye</text>
</svg>

